<?xml version="1.0" standalone="no"?>
<svg xmlns="http://www.w3.org/2000/svg" viewBox="0 0 146.364 36" width="146.364" height="36"><g fill="#61892f" color="#61892f" transform="translate(0 6) scale(0.5)"><svg width="29.0" height="48.0" x="0.0" y="0.0" viewBox="0 0 29 48"><path fill="currentColor" fill-rule="evenodd" d="M24 28.8l4.8 4.8L14.4 48 0 33.6l4.8-4.8 9.6 9.6 9.6-9.6zm-9.6-14.4L24 24l-9.6 9.6L4.8 24l9.6-9.6zm0-14.4l14.4 14.4-4.8 4.8-9.6-9.6-9.6 9.6L0 14.4 14.4 0z"></path></svg></g><path fill="#86c232" fill-rule="nonzero" d="M10.15 12.48L10.15 12.48Q10.22 10.46 10.22 7.20Q10.22 3.94 10.01 1.94L10.01 1.94L9.12 1.87Q9.07 1.49 9.07 1.21Q9.07 0.94 9.14 0.53L9.14 0.53Q9.91 0.55 10.91 0.55Q11.90 0.55 12.65 0.53L12.65 0.53Q12.72 0.89 12.72 1.16Q12.72 1.44 12.67 1.87L12.67 1.87L11.83 1.94Q11.66 3.89 11.66 9.25Q11.66 14.62 12.07 15.91L12.07 15.91Q11.35 16.15 11.03 16.15Q10.70 16.15 9.89 16.10L9.89 16.10Q9.72 15.36 8.47 13.40Q7.22 11.45 5.36 8.74Q3.50 6.02 2.69 4.68L2.69 4.68Q2.66 5.71 2.66 8.88Q2.66 12.05 2.88 14.57L2.88 14.57L3.77 14.64Q3.82 15.02 3.82 15.30Q3.82 15.58 3.74 15.98L3.74 15.98Q2.98 15.96 1.97 15.96Q0.96 15.96 0.22 15.98L0.22 15.98Q0.14 15.62 0.14 15.35Q0.14 15.07 0.19 14.64L0.19 14.64L1.03 14.57Q1.22 11.98 1.22 8.00Q1.22 4.03 1.01 2.06L1.01 2.06L0.07 1.99Q0 1.66 0 1.25Q0 0.84 0.02 0.65L0.02 0.65Q2.06 0.60 3.05 0.53L3.05 0.53Q3.50 2.26 5.64 5.71Q7.78 9.17 10.15 12.48ZM15.24 10.27Q15.24 4.49 19.75 4.49Q24.26 4.49 24.26 10.27L24.26 10.27Q24.26 12.94 23.42 14.50L23.42 14.50Q22.46 16.32 19.75 16.32Q17.04 16.32 16.08 14.50L16.08 14.50Q15.24 12.94 15.24 10.27L15.24 10.27ZM17.21 10.21Q17.21 14.59 19.75 14.59Q22.30 14.59 22.30 10.21Q22.30 5.83 19.75 5.83Q17.21 5.83 17.21 10.21ZM42.50 0.65Q42.53 0.84 42.53 1.25Q42.53 1.66 42.46 1.99L42.46 1.99L41.54 2.06Q41.52 2.74 41.52 4.06L41.52 4.06Q41.52 9.94 42.05 14.57L42.05 14.57L42.94 14.64Q42.98 15.02 42.98 15.30Q42.98 15.58 42.91 15.98L42.91 15.98Q42.07 15.96 40.97 15.96Q39.86 15.96 39.05 15.98L39.05 15.98Q38.98 15.62 38.98 15.35Q38.98 15.07 39.02 14.64L39.02 14.64L39.82 14.57Q39.86 12.84 39.86 10.62Q39.86 8.40 39.65 4.44L39.65 4.44Q39.41 4.94 38.45 6.89L38.45 6.89Q36.31 11.14 35.52 13.15L35.52 13.15Q35.04 13.34 34.50 13.34Q33.96 13.34 33.77 13.32L33.77 13.32Q32.93 11.30 31.38 8.44Q29.83 5.57 29.54 5.04L29.54 5.04Q29.35 8.45 29.35 10.81Q29.35 13.18 29.40 14.57L29.40 14.57L30.29 14.64Q30.34 15.02 30.34 15.30Q30.34 15.58 30.26 15.98L30.26 15.98Q29.50 15.96 28.49 15.96Q27.48 15.96 26.74 15.98L26.74 15.98Q26.66 15.62 26.66 15.35Q26.66 15.07 26.71 14.64L26.71 14.64L27.55 14.57Q28.06 10.20 28.06 4.22L28.06 4.22Q28.06 3.07 27.98 2.06L27.98 2.06L27.10 1.99Q27.02 1.66 27.02 1.25Q27.02 0.84 27.05 0.65L27.05 0.65Q29.02 0.60 30.02 0.53L30.02 0.53Q30.43 2.74 34.87 10.92L34.87 10.92Q38.54 3.74 39.17 0.53L39.17 0.53Q40.06 0.60 42.50 0.65L42.50 0.65ZM45.38 10.27Q45.38 4.49 49.90 4.49Q54.41 4.49 54.41 10.27L54.41 10.27Q54.41 12.94 53.57 14.50L53.57 14.50Q52.61 16.32 49.90 16.32Q47.18 16.32 46.22 14.50L46.22 14.50Q45.38 12.94 45.38 10.27L45.38 10.27ZM47.35 10.21Q47.35 14.59 49.90 14.59Q52.44 14.59 52.44 10.21Q52.44 5.83 49.90 5.83Q47.35 5.83 47.35 10.21ZM56.35 14.64L57.19 14.57Q57.41 12.17 57.41 10.16Q57.41 8.16 57.22 6.19L57.22 6.19L56.33 6.12Q56.26 5.74 56.26 5.33Q56.26 4.92 56.28 4.78L56.28 4.78Q57.50 4.75 59.26 4.56L59.26 4.56L59.38 4.68Q59.35 4.82 59.23 6.10L59.23 6.10Q59.78 5.40 60.52 4.94Q61.25 4.49 61.96 4.49Q62.66 4.49 63.19 4.99Q63.72 5.50 63.72 6.31L63.72 6.31Q63.72 7.66 62.59 7.66L62.59 7.66Q61.94 7.66 61.56 7.24Q61.18 6.82 61.18 6.12L61.18 6.12Q61.13 6.10 61.01 6.10L61.01 6.10Q60.12 6.10 59.18 7.44L59.18 7.44Q59.16 8.11 59.16 10.45Q59.16 12.79 59.38 14.57L59.38 14.57L60.26 14.64Q60.31 15.17 60.31 15.37Q60.31 15.58 60.24 15.98L60.24 15.98Q59.57 15.96 58.27 15.96Q56.98 15.96 56.38 15.98L56.38 15.98Q56.30 15.62 56.30 15.30Q56.30 14.98 56.35 14.64L56.35 14.64ZM69.05 10.63L69.05 10.63Q67.87 10.63 66.86 10.51L66.86 10.51Q66.91 14.59 69.58 14.59L69.58 14.59Q70.92 14.59 72.55 13.10L72.55 13.10Q73.25 13.82 73.44 15L73.44 15Q71.47 16.32 69.26 16.32Q67.06 16.32 65.98 14.80Q64.90 13.27 64.90 10.32Q64.90 7.37 66.11 5.93Q67.32 4.49 69.55 4.49L69.55 4.49Q71.21 4.49 72.29 5.50Q73.37 6.50 73.38 7.97Q73.39 9.43 73.13 10.06L73.13 10.06Q71.33 10.63 69.05 10.63ZM69.38 5.83L69.38 5.83Q67.15 5.83 66.89 9.12L66.89 9.12Q67.97 9.24 69.26 9.24Q70.56 9.24 71.28 9L71.28 9Q71.38 8.40 71.38 8.11L71.38 8.11Q71.38 7.06 70.84 6.44Q70.30 5.83 69.38 5.83ZM76.25 14.64L77.09 14.57Q77.30 11.26 77.30 7.58Q77.30 3.91 77.09 1.94L77.09 1.94L76.27 1.87Q76.22 1.49 76.22 1.21Q76.22 0.94 76.30 0.53L76.30 0.53Q77.14 0.55 78.24 0.55Q79.34 0.55 80.16 0.53L80.16 0.53Q80.23 0.89 80.23 1.16Q80.23 1.44 80.18 1.87L80.18 1.87L79.27 1.94Q79.10 4.20 79.10 8.15Q79.10 12.10 79.27 14.14L79.27 14.14Q80.02 14.21 81.44 14.21Q82.87 14.21 83.62 14.09L83.62 14.09L83.69 12.46Q84.10 12.38 84.42 12.38Q84.74 12.38 85.03 12.41L85.03 12.41Q85.10 14.23 85.25 15.96L85.25 15.96L85.13 16.08Q84 15.96 80.54 15.96Q77.09 15.96 76.27 15.98L76.27 15.98Q76.20 15.62 76.20 15.35Q76.20 15.07 76.25 14.64L76.25 14.64ZM86.62 14.64L87.46 14.57Q87.67 12.22 87.67 10.26Q87.67 8.30 87.48 6.19L87.48 6.19L86.59 6.12Q86.52 5.71 86.52 5.34Q86.52 4.97 86.54 4.78L86.54 4.78Q87.94 4.73 89.52 4.56L89.52 4.56L89.64 4.68Q89.42 6.10 89.42 9.43Q89.42 12.77 89.64 14.57L89.64 14.57L90.53 14.64Q90.58 15.02 90.58 15.30Q90.58 15.58 90.50 15.98L90.50 15.98Q89.66 15.96 88.56 15.96Q87.46 15.96 86.64 15.98L86.64 15.98Q86.57 15.62 86.57 15.24Q86.57 14.86 86.62 14.64L86.62 14.64ZM89.88 1.25L89.88 1.25Q89.88 2.74 88.34 2.74L88.34 2.74Q87.14 2.74 87.14 1.51L87.14 1.51Q87.14 0 88.68 0L88.68 0Q89.88 0 89.88 1.25ZM102.22 7.56L102.22 7.56L102.19 9.89Q102.19 12.41 102.48 14.57L102.48 14.57L103.32 14.64Q103.37 15.17 103.37 15.37Q103.37 15.58 103.30 15.98L103.30 15.98Q102.62 15.96 101.28 15.96Q99.94 15.96 99.36 15.98L99.36 15.98Q99.29 15.62 99.29 15.30Q99.29 14.98 99.34 14.64L99.34 14.64L100.18 14.57Q100.37 11.76 100.37 9.76Q100.37 7.75 99.97 6.89Q99.58 6.02 98.62 6.02L98.62 6.02Q97.32 6.02 95.76 7.58L95.76 7.58Q95.74 8.21 95.74 10.50Q95.74 12.79 95.95 14.57L95.95 14.57L96.84 14.64Q96.89 15.17 96.89 15.37Q96.89 15.58 96.82 15.98L96.82 15.98Q96.14 15.96 94.85 15.96Q93.55 15.96 92.95 15.98L92.95 15.98Q92.88 15.62 92.88 15.30Q92.88 14.98 92.93 14.64L92.93 14.64L93.77 14.57Q93.98 12.17 93.98 10.16Q93.98 8.16 93.79 6.19L93.79 6.19L92.90 6.12Q92.83 5.71 92.83 5.32Q92.83 4.92 92.86 4.78L92.86 4.78Q94.08 4.75 95.83 4.56L95.83 4.56L95.95 4.68Q95.90 4.97 95.81 6.12L95.81 6.12Q96.55 5.38 97.54 4.93Q98.52 4.49 99.38 4.49L99.38 4.49Q102.22 4.49 102.22 7.56ZM109.61 10.63L109.61 10.63Q108.43 10.63 107.42 10.51L107.42 10.51Q107.47 14.59 110.14 14.59L110.14 14.59Q111.48 14.59 113.11 13.10L113.11 13.10Q113.81 13.82 114 15L114 15Q112.03 16.32 109.82 16.32Q107.62 16.32 106.54 14.80Q105.46 13.27 105.46 10.32Q105.46 7.37 106.67 5.93Q107.88 4.49 110.11 4.49L110.11 4.49Q111.77 4.49 112.85 5.50Q113.93 6.50 113.94 7.97Q113.95 9.43 113.69 10.06L113.69 10.06Q111.89 10.63 109.61 10.63ZM109.94 5.83L109.94 5.83Q107.71 5.83 107.45 9.12L107.45 9.12Q108.53 9.24 109.82 9.24Q111.12 9.24 111.84 9L111.84 9Q111.94 8.40 111.94 8.11L111.94 8.11Q111.94 7.06 111.40 6.44Q110.86 5.83 109.94 5.83ZM120.02 4.49Q121.70 4.49 122.70 5.28Q123.70 6.07 123.70 7.33Q123.70 8.59 122.57 8.59L122.57 8.59Q121.90 8.59 121.52 8.17Q121.15 7.75 121.15 7.18Q121.15 6.60 121.34 6.22L121.34 6.22Q120.77 5.76 119.98 5.76Q119.18 5.76 118.67 6.14Q118.15 6.53 118.15 7.27Q118.15 8.02 118.74 8.57Q119.33 9.12 120.17 9.47Q121.01 9.82 121.85 10.19Q122.69 10.56 123.28 11.24Q123.86 11.93 123.86 12.94L123.86 12.94Q123.86 14.50 122.82 15.41Q121.78 16.32 119.98 16.32Q118.18 16.32 117.04 15.55Q115.90 14.78 115.90 13.54L115.90 13.54L115.90 13.44Q115.90 12.14 117.02 12.14L117.02 12.14Q117.70 12.14 118.07 12.56Q118.44 12.98 118.44 13.54Q118.44 14.09 118.32 14.40L118.32 14.40Q118.80 14.71 119.84 14.71Q120.89 14.71 121.43 14.35Q121.97 13.99 121.97 13.36Q121.97 12.72 121.38 12.22Q120.79 11.71 119.95 11.36Q119.11 11.02 118.27 10.62Q117.43 10.22 116.84 9.48Q116.26 8.74 116.26 7.70L116.26 7.70Q116.26 6.22 117.30 5.35Q118.34 4.49 120.02 4.49Z" transform="translate(22.5, 9.84)"></path></svg>